<?xml version="1.0" standalone="no"?>
<!DOCTYPE svg PUBLIC "-//W3C//DTD SVG 20010904//EN"
 "http://www.w3.org/TR/2001/REC-SVG-20010904/DTD/svg10.dtd">
<svg version="1.0" xmlns="http://www.w3.org/2000/svg"
 width="32.000000pt" height="32.000000pt" viewBox="0 0 32.000000 32.000000"
 preserveAspectRatio="xMidYMid meet">

<g transform="translate(0.000000,32.000000) scale(0.100000,-0.100000)"
fill="#000000" stroke="none">
<path d="M81 244 c-54 -45 -51 -129 7 -174 34 -27 43 -25 27 6 -16 31 -7 62
30 106 25 29 35 88 15 88 -5 0 -10 -8 -10 -17 0 -10 -14 -40 -30 -68 -19 -33
-30 -43 -30 -30 1 11 12 38 25 60 14 22 25 43 25 48 0 15 -30 6 -59 -19z"/>
<path d="M180 245 c0 -14 -11 -48 -25 -75 -28 -56 -32 -92 -11 -113 38 -37
126 33 126 99 0 41 -14 72 -44 96 -30 25 -46 22 -46 -7z m37 -67 c-3 -7 -5 -2
-5 12 0 14 2 19 5 13 2 -7 2 -19 0 -25z m-6 -51 c-10 -9 -11 -8 -5 6 3 10 9
15 12 12 3 -3 0 -11 -7 -18z m-43 -42 c0 -13 -4 -22 -9 -19 -12 7 -12 44 0 44
5 0 9 -11 9 -25z m19 -7 c-3 -8 -6 -5 -6 6 -1 11 2 17 5 13 3 -3 4 -12 1 -19z"/>
</g>
</svg>
