<svg class="logo" aria-hidden="true" focusable="false" width="96" height="96" viewbox="0 0 768 768" xmlns="http://www.w3.org/2000/svg">
  <defs>
    <filter id="a" width="325.15967616" height="531.27052489" x="327.88379127" y="120.69563203" color-interpolation-filters="sRGB" filterUnits="userSpaceOnUse">
      <feColorMatrix result="cm" values="-1 0 0 0 1 0 -1 0 0 1 0 0 -1 0 1 0 0 0 1 0"/>
      <feFlood flood-color="#fff" result="bg"/>
      <feBlend in="cm" in2="bg"/>
    </filter>
    <mask id="b" width="325.15967616" height="531.27052489" x="327.88379127" y="120.69563203" maskUnits="userSpaceOnUse">
      <g filter="url(#a)">
        <path fill="#fefefe" stroke-width="0" d="M497.67443702 438.30074354c5.86270262-.42216413 9.59865604-3.49093976 12.67554971-7.6918329 3.02453504-4.12943402 3.34503335-7.81345376-.22523977-12.10014666-5.17087295-6.20864423-4.07811527-13.39934792 2.29255154-18.19119762 5.18673921-3.90138728 10.56338526-7.5495249 15.7687368-11.42692974 1.85812133-1.38414669 3.61012183-2.97815497 5.15268779-4.7064771 5.28474383-5.92119061 5.14524285-9.61106866-.86434466-14.7928618-15.23294564-13.1347478-27.14966127-28.73971718-35.71896362-46.93808512-5.11955173-10.87225196-7.1543987-22.06216442-1.72240384-33.22421943 12.64753967-25.98899871 13.92825143-52.30667277 3.92512798-79.63316532 1.67749014 2.0550447 3.39788018 4.07686183 5.02044867 6.17434874 1.62940318 2.1063659 3.23531211 4.23820932 4.72503124 6.44431897 22.44574436 33.23956696 38.36661412 68.95036241 43.97704331 109.14367682 6.5875463 47.19401983-1.20797109 90.67533864-29.02035355 130.10923971-11.32032759 16.0504752-23.5680987 31.45586554-33.97904588 48.14068537-22.10663371 35.42846784-26.67501621 72.82453298-12.3659747 112.28235546.61030153 1.68298129 1.47653794 3.31445831 1.16366763 5.59040994-4.09861936-1.04277836-6.94246218-3.89369825-9.87808517-6.31049331-16.42029059-13.51816168-30.49323005-28.88394744-36.83210334-49.8286096-4.48441341-14.8167527-4.31275275-29.88773145-1.53731789-44.98891708.60639599-3.2994464 2.04973685-6.2799813 3.90682076-9.10759003 3.22176477-4.90541538 7.14664865-7.29865517 13.37396997-5.82773233 3.98249059.94068518 8.27876684.77427269 12.43084327.73448504 12.51511748-.11985116 20.65413925-7.96198621 21.13860919-20.46745437.24537771-6.33392653.33184879-12.6532073 2.10203446-18.80101059 1.67938188-5.83285835 4.59505001-10.27192822 10.64979532-12.88143711 10.04370444-4.32867743 11.13371604-11.22689302 3.84091479-21.70135994Z"/>
      </g>
    </mask>
  </defs>
  <path fill="#BD8A6B" d="M383.62500263 767.92960486c-126.72693785 0-253.45388714-.01080125-380.1807685.0703912-2.81152451.00183072-3.44506706-.63342927-3.44423331-3.44477509a1283280.04051836 1283280.04051836 0 0 0 0-761.11101238C-.00083293.63287806.63287759-.00083297 3.44420982 8.2e-7a1283150.77069644 1283150.77069644 0 0 0 761.1114699 4e-8c2.81134751-.00083375 3.44514331.63287719 3.44431948 3.44420773-.07524265 253.70366459-.07533419 507.40734993-.00009154 761.11101237.00082382 2.81134582-.6327889 3.44660581-3.44427371 3.44477509-126.97683134-.08119245-253.95375421-.0703912-380.93063132-.0703912Z"/>
  <g mask="url(#b)">
    <path d="M437.06370201 509.87111097c-14.54282464-4.59956302-28.73549328-8.05278994-42.87842732-11.67676205-4.50979941-1.15561176-9.17844443-1.79538752-13.57196251-3.27314505-5.05462214-1.70012904-8.11128633.28327347-10.99784599 4.14261521-17.15947492 22.94234429-21.16484953 48.01900348-12.06341746 75.07857699 6.94255371 20.64094564 21.5656555 35.22513583 38.71609886 47.67055636 10.8080917 7.84292836 22.25272528 14.59432017 34.37155258 20.21573031 2.37761907 1.10288701 4.95991281 1.91590995 7.22860395 4.20345615-4.64862913 2.93739092-9.83707701 2.96894034-14.71985542 3.48001646-9.93172531 1.03960511-19.92355931 1.50540141-29.89116676 2.20052595-5.78135756.40318566-10.60134222-1.48471427-15.07233033-5.28461861-29.15677282-24.78032658-44.42602777-56.75776437-48.96191496-94.24109384-4.7241769-39.03938081 3.51559557-76.14314092 17.39902484-112.33288334 10.7725452-28.08062731 25.34243401-54.21013382 40.90915069-79.84577298 15.80339846-26.02552159 32.08870386-51.81262235 44.22284819-79.85401122 9.73486172-22.49650284 17.75409328-45.50920783 20.75257104-70.07747595 3.87911584-31.78353399-1.87215686-61.27549419-19.54423381-88.20937348-.15512314-.2364528-.11448112-.6013764-.2428147-1.37181984 5.90511433.08300792 11.4160133 1.79598251 16.98171186 2.96865048 124.14159291 26.15644861 188.08112888 130.9737364 200.0036418 212.592257 13.45586425 92.11529179-13.96260797 171.89253481-78.6470035 238.35018828-31.38271661 32.2430143-69.64229455 54.14965902-112.63807112 67.93608227-10.96358099 3.51541039-17.9809807.94269897-24.89488362-7.67553949-14.50193853-18.07689964-20.86839469-38.45324516-19.06812416-61.34799072 1.54354234-19.62916749 6.76048846-38.28860237 16.44299154-55.56462284.81241319-1.44956443 1.65167696-2.9004714 2.64173116-4.22914726.88301802-1.18490328 1.99225219-2.20125824 3.52212515-3.85439879Z"/>
  </g>
  <path d="M237.08190682 468.24205407c1.28123046-8.95155162 2.15500333-17.39928898 3.74117098-25.71106484 5.3265148-27.91195694 17.98232323-52.77753406 32.69201814-76.6975746 17.115263-27.83183241 37.07470445-53.69786773 55.92329459-80.33250052 17.14373072-24.22552675 33.00531561-49.16170866 43.463709-77.20727768 8.27449516-22.18912488 11.08813107-45.1452606 11.12657623-68.61445572.01061818-6.49686065.33697481-12.99826759.16555825-19.48826304-.08903409-3.37124115 1.13419301-4.53678457 4.3080539-4.05194878.32556331.04973457.66534523.00727711.99853655.00608715 15.77599867-.05670657 17.84953489 1.17887716 23.38984745 16.07439661 5.91182698 15.89437577 5.08183886 32.49174818 3.72466397 48.91999254-3.99036269 48.30160569-24.91788968 89.92758088-51.76435296 129.13084169-13.95909909 20.38409557-30.3403648 38.831472-46.10220588 57.77619414-21.23365415 25.52158528-41.88486424 51.55461282-54.86809721 82.44063611-20.30126767 48.29507612-19.73539165 95.6409237 9.37823717 140.69001046 11.37543231 17.60182769 25.74345356 32.66603277 42.4673388 45.40485676 2.20888757 1.68255412 4.74056186 3.06432087 6.59462509 6.39623205-6.45445284-.54689722-11.94994323-2.56258143-17.42254961-4.38738253-93.25280496-31.09564079-152.78631292-95.67357155-179.21766009-188.78980974-44.68873631-157.43612891 56.14362193-296.26804967 193.90358613-327.7083846 2.59498674-.59223806 5.16031579-1.33139143 7.77254183-1.82815742 5.76186037-1.09577771 6.84497625-.12110216 6.38418365 5.76355033-1.04399946 13.33312161-3.68878183 26.3227543-8.13130222 38.96641135-8.7861208 25.00584082-22.17025128 47.58524479-36.3831799 69.75609298-12.93831927 20.18259427-27.76142738 39.11196888-39.82377692 59.87136213-15.76348873 27.12907986-27.86120171 55.6300711-31.68618922 87.0845636-3.403769 27.99079997.48425636 54.77112758 14.06329765 79.79542817 1.23573703 2.27723314 2.1764838 4.83847204 5.30207466 6.7401634Z"/>
</svg>
